<svg class="diagram-root" style="background: #f5f6f6" xmlns="http://www.w3.org/2000/svg" xmlns:xlink="http://www.w3.org/1999/xlink"><style>.diagram-root { font-family: "Helvetica Neue", sans-serif; font-size: 12px; } .t { overflow: visible; } .t-bg { y: 40; fill: #fff;   } .th { fill: #005aa0;   } .tht { fill: #fff; font-size: 14px;  } .tf { fill: #323c46; overflow: visible; } .tf.pk { fill: #005aa0; font-weight: bold; } .tf.fk { font-weight: bold; } .ty { fill: #adb1b5; font-weight: normal; text-anchor: end; } .r { fill: transparent; stroke: #c3c3c3; stroke-width: 1; } .l { stroke: 1; } .i { fill: #c2c7ce; stroke: #c2c7ce; } .i.ix { fill: #afb3b6; stroke: #000; } .fa { fill: transparent; overflow: visible; } .fa .bg.hover { fill: #f7f7f7; } .c { cy: 12; r: 4; stroke: #d2d2dc; fill: #d2d2dc; } .hr { fill: transparent; stroke: #323c46; stroke-opacity: 0.035; stroke-width: 13; } .dc { stroke: #fa5a3c; fill: #fa5a3c; } .x { stroke: white; stroke-width: 1; } .hl .th { fill: #1b9bff; } .hl .tht {  } .fhl .bg { fill: #e7f4ff; } .fhls .bg {  } .r.hl { stroke: #1b9bff; } .dim { opacity: 0.25; }</style><g class="drawing-wrapper" transform="translate(2, 18) scale(1,1)"><g class="rs"><path d="M 32 455 m -1, 0 a 1,1 0 1,0 2,0 a 1,1 0 1,0 -2,0 M 32 455 m -0.5, 0 a 0.5,0.5 0 1,0 1,0 a 0.5,0.5 0 1,0 -1,0  M32 455 L32 455 20 455 M 32 461 m -1, 0 a 1,1 0 1,0 2,0 a 1,1 0 1,0 -2,0 M 32 461 m -0.5, 0 a 0.5,0.5 0 1,0 1,0 a 0.5,0.5 0 1,0 -1,0  M32 461 L32 461 25 455 32 449 M 32 449 m -1, 0 a 1,1 0 1,0 2,0 a 1,1 0 1,0 -2,0 M 32 449 m -0.5, 0 a 0.5,0.5 0 1,0 1,0 a 0.5,0.5 0 1,0 -1,0  M20 455 C -33.2 455, -32 87, 18 87 M 30 87 m -1, 0 a 1,1 0 1,0 2,0 a 1,1 0 1,0 -2,0 M 30 87 m -0.5, 0 a 0.5,0.5 0 1,0 1,0 a 0.5,0.5 0 1,0 -1,0  M30 87 L30 87 18 87 M24 93 L24 93 24 81" id="h3609620397" class="r"></path><path d="M 311.04 650 m -1, 0 a 1,1 0 1,0 2,0 a 1,1 0 1,0 -2,0 M 311.04 650 m -0.5, 0 a 0.5,0.5 0 1,0 1,0 a 0.5,0.5 0 1,0 -1,0  M311.04 650 L311.04 650 323.04 650 M 311.04 656 m -1, 0 a 1,1 0 1,0 2,0 a 1,1 0 1,0 -2,0 M 311.04 656 m -0.5, 0 a 0.5,0.5 0 1,0 1,0 a 0.5,0.5 0 1,0 -1,0  M311.04 656 L311.04 656 318.04 650 311.04 644 M 311.04 644 m -1, 0 a 1,1 0 1,0 2,0 a 1,1 0 1,0 -2,0 M 311.04 644 m -0.5, 0 a 0.5,0.5 0 1,0 1,0 a 0.5,0.5 0 1,0 -1,0  M323.04 650 C 373.04 650, 463.23800000000006 355, 172.71 355 M 160.71 355 m -1, 0 a 1,1 0 1,0 2,0 a 1,1 0 1,0 -2,0 M 160.71 355 m -0.5, 0 a 0.5,0.5 0 1,0 1,0 a 0.5,0.5 0 1,0 -1,0  M160.71 355 L160.71 355 172.71 355 M166.71 361 L166.71 361 166.71 349" id="h159728752" class="r"></path><path d="M 593 340 m -1, 0 a 1,1 0 1,0 2,0 a 1,1 0 1,0 -2,0 M 593 340 m -0.5, 0 a 0.5,0.5 0 1,0 1,0 a 0.5,0.5 0 1,0 -1,0  M593 340 L593 340 581 340 M 593 346 m -1, 0 a 1,1 0 1,0 2,0 a 1,1 0 1,0 -2,0 M 593 346 m -0.5, 0 a 0.5,0.5 0 1,0 1,0 a 0.5,0.5 0 1,0 -1,0  M593 346 L593 346 586 340 593 334 M 593 334 m -1, 0 a 1,1 0 1,0 2,0 a 1,1 0 1,0 -2,0 M 593 334 m -0.5, 0 a 0.5,0.5 0 1,0 1,0 a 0.5,0.5 0 1,0 -1,0  M581 340 Q 483.44 340, 385.87 213.5 T 190.73 87 M 178.73 87 m -1, 0 a 1,1 0 1,0 2,0 a 1,1 0 1,0 -2,0 M 178.73 87 m -0.5, 0 a 0.5,0.5 0 1,0 1,0 a 0.5,0.5 0 1,0 -1,0  M178.73 87 L178.73 87 190.73 87 M184.73 93 L184.73 93 184.73 81" id="h3236528592" class="r"></path><path d="M 593 365 m -1, 0 a 1,1 0 1,0 2,0 a 1,1 0 1,0 -2,0 M 593 365 m -0.5, 0 a 0.5,0.5 0 1,0 1,0 a 0.5,0.5 0 1,0 -1,0  M593 365 L593 365 581 365 M 593 371 m -1, 0 a 1,1 0 1,0 2,0 a 1,1 0 1,0 -2,0 M 593 371 m -0.5, 0 a 0.5,0.5 0 1,0 1,0 a 0.5,0.5 0 1,0 -1,0  M593 371 L593 371 586 365 593 359 M 593 359 m -1, 0 a 1,1 0 1,0 2,0 a 1,1 0 1,0 -2,0 M 593 359 m -0.5, 0 a 0.5,0.5 0 1,0 1,0 a 0.5,0.5 0 1,0 -1,0  M581 365 Q 516.51 365, 452.02 457.5 T 323.04 550 M 311.04 550 m -1, 0 a 1,1 0 1,0 2,0 a 1,1 0 1,0 -2,0 M 311.04 550 m -0.5, 0 a 0.5,0.5 0 1,0 1,0 a 0.5,0.5 0 1,0 -1,0  M311.04 550 L311.04 550 323.04 550 M317.04 556 L317.04 556 317.04 544" id="h642328354" class="r"></path></g><g class="hrs"></g><g class="ts"><svg width="148.73" height="200" x="30" y="30" id="h1537667952" class="t"><rect height="40" width="148.73" class="th"></rect><text x="13" y="25" class="tht">User</text><rect height="160" width="148.73" class="t-bg"></rect><text x="13" y="61" class="tf pk">username<tspan x="135.73" class="ty">string</tspan></text><path d="M7,14A2,2 0 0,1 5,12A2,2 0 0,1 7,10A2,2 0 0,1 9,12A2,2 0 0,1 7,14M12.65,10C11.83,7.67 9.61,6 7, 6A6, 6 0 0, 0 1, 12A6, 6 0 0, 0 7, 18C9.61, 18 11.83, 16.33 12.65, 14H17V18H21V14H23V10H12.65Z" class="i pk" transform="translate(86.38624999999999, 48) scale(0.65)"></path><text x="13" y="86" class="tf">password<tspan x="135.73" class="ty">string</tspan></text><text x="13" y="111" class="tf">firstName<tspan x="135.73" class="ty">string</tspan></text><text x="13" y="136" class="tf">lastName<tspan x="135.73" class="ty">string</tspan></text><text x="13" y="161" class="tf">email<tspan x="135.73" class="ty">string</tspan></text><text x="13" y="186" class="tf">isCompany<tspan x="135.73" class="ty">boolean</tspan></text></svg><svg width="128.71" height="175" x="32" y="298" id="h1617264086" class="t"><rect height="40" width="128.71" class="th"></rect><text x="13" y="25" class="tht">Company</text><rect height="135" width="128.71" class="t-bg"></rect><text x="13" y="61" class="tf pk">id<tspan x="115.71000000000001" class="ty">int</tspan></text><path d="M7,14A2,2 0 0,1 5,12A2,2 0 0,1 7,10A2,2 0 0,1 9,12A2,2 0 0,1 7,14M12.65,10C11.83,7.67 9.61,6 7, 6A6, 6 0 0, 0 1, 12A6, 6 0 0, 0 7, 18C9.61, 18 11.83, 16.33 12.65, 14H17V18H21V14H23V10H12.65Z" class="i pk" transform="translate(83.03617187500001, 48) scale(0.65)"></path><text x="13" y="86" class="tf">name<tspan x="115.71000000000001" class="ty">string</tspan></text><text x="13" y="111" class="tf">url<tspan x="115.71000000000001" class="ty">string</tspan></text><text x="13" y="136" class="tf">address<tspan x="115.71000000000001" class="ty">string</tspan></text><text x="13" y="161" class="tf fk">username<tspan x="115.71000000000001" class="ty">string</tspan></text></svg><svg width="122.04" height="175" x="189" y="493" id="h2937253543" class="t"><rect height="40" width="122.04" class="th"></rect><text x="13" y="25" class="tht">Job</text><rect height="135" width="122.04" class="t-bg"></rect><text x="13" y="61" class="tf pk">id<tspan x="109.04" class="ty">int</tspan></text><path d="M7,14A2,2 0 0,1 5,12A2,2 0 0,1 7,10A2,2 0 0,1 9,12A2,2 0 0,1 7,14M12.65,10C11.83,7.67 9.61,6 7, 6A6, 6 0 0, 0 1, 12A6, 6 0 0, 0 7, 18C9.61, 18 11.83, 16.33 12.65, 14H17V18H21V14H23V10H12.65Z" class="i pk" transform="translate(76.366171875, 48) scale(0.65)"></path><text x="13" y="86" class="tf">position<tspan x="109.04" class="ty">string</tspan></text><text x="13" y="111" class="tf">hourlyPay<tspan x="109.04" class="ty">float</tspan></text><text x="13" y="136" class="tf">date<tspan x="109.04" class="ty">date</tspan></text><text x="13" y="161" class="tf fk">companyId<tspan x="109.04" class="ty">int</tspan></text></svg><svg width="132.03" height="125" x="593" y="258" id="h3748568268" class="t"><rect height="40" width="132.03" class="th"></rect><text x="13" y="25" class="tht">Application</text><rect height="85" width="132.03" class="t-bg"></rect><text x="13" y="61" class="tf pk">ProductID<tspan x="119.03" class="ty">int</tspan></text><path d="M7,14A2,2 0 0,1 5,12A2,2 0 0,1 7,10A2,2 0 0,1 9,12A2,2 0 0,1 7,14M12.65,10C11.83,7.67 9.61,6 7, 6A6, 6 0 0, 0 1, 12A6, 6 0 0, 0 7, 18C9.61, 18 11.83, 16.33 12.65, 14H17V18H21V14H23V10H12.65Z" class="i pk" transform="translate(86.356171875, 48) scale(0.65)"></path><text x="13" y="86" class="tf fk">username<tspan x="119.03" class="ty">string</tspan></text><text x="13" y="111" class="tf fk">jobId<tspan x="119.03" class="ty">int</tspan></text></svg></g></g><text class="qdbd-link" x="10" y="20">www.quickdatabasediagrams.com</text></svg>